<svg fill="#D97AB0" xmlns="http://www.w3.org/2000/svg" viewBox="0 0 34 34">
<circle cx="17" cy="17" r="16" style="fill:none;stroke:#D97AB0;stroke-miterlimit:10;stroke-width:2px"/>
<path  d="M10,17a7,7,0,0,1,7-7,7,7,0,0,1,7,7,7,7,0,0,1-7,7,7,7,0,0,1-7-7Zm1.16,0a5.64,5.64,0,0,0,1.47,3.85,8.11,8.11,0,0,1,2.13-2.51,6.92,6.92,0,0,1,2.84-1.49c-.14-.33-.27-.62-.4-.89a16.87,16.87,0,0,1-5.21.77h-.81s0,.08,0,.14A.76.76,0,0,0,11.16,17Zm.18-1.44c.21,0,.51,0,.91,0A15.37,15.37,0,0,0,16.69,15a14.18,14.18,0,0,0-2.34-3.15,5.64,5.64,0,0,0-1.89,1.55A6,6,0,0,0,11.34,15.56Zm2.09,6A5.65,5.65,0,0,0,17,22.84a5.74,5.74,0,0,0,2.06-.39A20.9,20.9,0,0,0,18,17.81a6,6,0,0,0-2.6,1.42A7.92,7.92,0,0,0,13.43,21.61Zm2.14-10.25a14.94,14.94,0,0,1,2.28,3.18,7,7,0,0,0,2.87-2A5.64,5.64,0,0,0,17,11.16,5.42,5.42,0,0,0,15.57,11.36Zm2.79,4.17c.14.3.3.68.47,1.13.69-.06,1.45-.09,2.26-.09.58,0,1.15,0,1.72,0a5.6,5.6,0,0,0-1.37-3.39A6.92,6.92,0,0,1,18.36,15.53Zm.82,2.11a20.08,20.08,0,0,1,1,4.26A6,6,0,0,0,22,20.07a5.88,5.88,0,0,0,.84-2.43c-.69,0-1.31-.07-1.87-.07S19.84,17.6,19.18,17.64Z"
/>
</svg>