<svg fill="#CC212C" xmlns="http://www.w3.org/2000/svg" viewBox="0 0 34 34">
<circle cx="17" cy="17" r="16" style="fill:none; stroke:#CC212C; stroke-miterlimit:10; stroke-width:2px"/>
<path d="M16.36,10.67a4.79,4.79,0,0,0-4.31,4.4c-.06,1.49.37,2.61,1.79,2.93.62-1.09-.2-1.33-.33-2.12-.52-3.23,3.73-5.43,6-3.17,1.53,1.56.52,6.36-2,5.86s1.17-4.3-.73-5.05c-1.54-.61-2.36,1.87-1.63,3.09-.43,2.12-1.35,4.11-1,6.76,1.21-.88,1.61-2.56,2-4.31a3.45,3.45,0,0,0,1.71.81c2.86.22,4.46-2.86,4.07-5.7C21.55,11.65,19,10.37,16.36,10.67Z"/></svg>